<?xml version="1.0" encoding="utf-8"?>
<!-- Generator: Adobe Illustrator 27.5.0, SVG Export Plug-In . SVG Version: 6.00 Build 0)  -->
<svg version="1.1" xmlns="http://www.w3.org/2000/svg" xmlns:xlink="http://www.w3.org/1999/xlink" x="0px" y="0px"
	 viewBox="0 0 500 500" style="enable-background:new 0 0 500 500;" xml:space="preserve">
<g id="Background_Simple">
	<g>
		<path style="fill:#92E3A9;" d="M438.196,122.586c-32.044-42.69-76.286-76.173-126.365-95.797
			c-12.314-4.826-25.404-8.5-38.713-8.668C203.973,17.245,26.295,145.908,13.166,186.17
			c-13.129,40.262,73.522,243.322,134.79,274.831c61.268,31.509,305.465-108.532,333.474-151.42
			c19.459-29.797,8.285-74.149-1.336-105.33C470.941,174.586,456.575,147.071,438.196,122.586z"/>
		<path style="opacity:0.7;fill:#FFFFFF;" d="M438.196,122.586c-32.044-42.69-76.286-76.173-126.365-95.797
			c-12.314-4.826-25.404-8.5-38.713-8.668C203.973,17.245,26.295,145.908,13.166,186.17
			c-13.129,40.262,73.522,243.322,134.79,274.831c61.268,31.509,305.465-108.532,333.474-151.42
			c19.459-29.797,8.285-74.149-1.336-105.33C470.941,174.586,456.575,147.071,438.196,122.586z"/>
	</g>
</g>
<g id="Clouds">
	<g>
		<path style="fill:none;stroke:#263238;stroke-miterlimit:10;" d="M381.898,44.753c-13.089,4.654-16.579,18.283-20.568,22.937
			c-5.319,6.205-12.41-12.41-29.253-7.978c-16.842,4.432-15.069,14.183-22.161,18.615c-7.091,4.432-10.637-6.205-18.615-2.659
			c-7.978,3.546-12.41,7.978-14.183,11.524c-1.773,3.546-11.524,0.887-15.07,2.659c-3.546,1.773-7.978,4.432-7.978,4.432h223.384
			c0,0-2.659-19.502-14.183-23.934c-11.524-4.432-22.161,7.978-29.253,1.773c0,0-7.978-23.934-35.458-28.366
			c-1.847-0.298-3.589-0.476-5.235-0.546"/>
	</g>
	<g>
		<path style="fill:none;stroke:#263238;stroke-miterlimit:10;" d="M140.051,277.131c-2.413-5.44-7.324-11.818-17.246-13.418
			c-18.111-2.921-24.875,14.75-28.38,18.839c-3.506,4.09-8.179-8.179-19.28-5.258c-11.101,2.921-9.932,9.348-14.606,12.269
			s-7.011-4.09-12.269-1.753c-5.258,2.337-8.179,5.258-9.348,7.595c-1.168,2.337-7.595,0.584-9.932,1.753
			c-2.337,1.169-5.258,2.921-5.258,2.921H170.96c0,0-1.753-12.853-9.348-15.774c-7.595-2.921-14.606,5.258-19.28,1.168"/>
	</g>
</g>
<g id="Lines">
	<g>
		<line style="fill:none;stroke:#263238;stroke-miterlimit:10;" x1="51.353" y1="226.563" x2="62.428" y2="220.837"/>
		<line style="fill:none;stroke:#263238;stroke-miterlimit:10;" x1="41.267" y1="231.777" x2="47.983" y2="228.306"/>
		<line style="fill:none;stroke:#263238;stroke-miterlimit:10;" x1="50.385" y1="157.813" x2="30.218" y2="153.294"/>
		<line style="fill:none;stroke:#263238;stroke-miterlimit:10;" x1="58.34" y1="159.595" x2="53.239" y2="158.452"/>
		<line style="fill:none;stroke:#263238;stroke-miterlimit:10;" x1="81.048" y1="106.298" x2="90.837" y2="122.951"/>
		<line style="fill:none;stroke:#263238;stroke-miterlimit:10;" x1="76.78" y1="99.038" x2="79.238" y2="103.218"/>
		<line style="fill:none;stroke:#263238;stroke-miterlimit:10;" x1="62.275" y1="129.249" x2="73.878" y2="139.09"/>
		<line style="fill:none;stroke:#263238;stroke-miterlimit:10;" x1="41.64" y1="196.121" x2="57.52" y2="192.693"/>
	</g>
</g>
<g id="Character">
	<g>
		<path style="fill:#263238;stroke:#263238;stroke-linecap:round;stroke-linejoin:round;stroke-miterlimit:10;" d="M137.436,342.753
			c0,0-1.207-5.636,3.297-10.66c4.504-5.024,16.285-11.78,16.285-11.78l-4.158,24.254
			C152.86,344.566,141.934,346.309,137.436,342.753z"/>
		<g>
			<path style="fill:#92E3A9;stroke:#263238;stroke-linecap:round;stroke-linejoin:round;stroke-miterlimit:10;" d="
				M277.179,319.279c0,0-24.208,17.605-24.574,23.107c-0.367,5.502-1.834,9.536-1.834,9.536s-32.643,21.273-38.512,23.474
				c-5.868,2.201-9.169,0.367-13.571-0.734c-4.401-1.1-11.003,1.834-11.003,1.834s1.1-19.806-1.834-32.276
				s-3.668-17.605-3.668-17.605s-7.336,8.803-20.173,13.938c-12.837,5.135-24.574,2.201-24.574,2.201l2.934,23.474
				c0,0-6.602,14.304-4.035,35.944c2.567,21.64,5.502,35.211,14.671,40.346c9.17,5.135,27.508,5.135,27.508,5.135
				s46.581-6.602,63.453-12.47c16.872-5.868,16.872-33.744,27.875-61.252c11.003-27.509,23.474-48.048,20.173-50.982
				C286.715,320.012,281.214,318.178,277.179,319.279z"/>
			<path style="fill:none;stroke:#263238;stroke-linecap:round;stroke-linejoin:round;stroke-miterlimit:10;" d="M139.548,345.293
				c0,0,5.641,24.21,5.406,25.855c-0.235,1.645-4.231,9.637-3.996,21.389c0.235,11.752,3.056,13.398,3.761,6.346
				c0.705-7.051,0.705-12.457,0.705-12.457"/>
			<path style="fill:none;stroke:#263238;stroke-linecap:round;stroke-linejoin:round;stroke-miterlimit:10;" d="M170.505,371.455
				c4.767-1.663,9.751-4.518,14.406-9.239"/>
			<path style="fill:none;stroke:#263238;stroke-linecap:round;stroke-linejoin:round;stroke-miterlimit:10;" d="M147.304,372.089
				c0,0,6.118,2.062,14.377,1.28"/>
			<path style="fill:none;stroke:#263238;stroke-linecap:round;stroke-linejoin:round;stroke-miterlimit:10;" d="M177.684,432.565
				c-1.983,1.546-3.82,2.633-5.23,3.221"/>
			<path style="fill:none;stroke:#263238;stroke-linecap:round;stroke-linejoin:round;stroke-miterlimit:10;" d="M187.967,378.67
				c0,0,5.406,12.928,3.996,28.676c-0.793,8.858-5.082,16.006-9.687,20.983"/>
			<path style="fill:none;stroke:#263238;stroke-linecap:round;stroke-linejoin:round;stroke-miterlimit:10;" d="M193.373,393.713
				c0,0,5.171,17.158,0.705,32.201"/>
			<path style="fill:none;stroke:#263238;stroke-linecap:round;stroke-linejoin:round;stroke-miterlimit:10;" d="M252.605,342.386
				c0,0,2.585,13.485,5.406,18.185"/>
		</g>
		<path style="fill:#FFFFFF;stroke:#263238;stroke-linecap:round;stroke-linejoin:round;stroke-miterlimit:10;" d="M196.708,224.698
			l-4.311,6.775l18.632,44.038l10.317-13.55c0,0,6.005-1.848,7.083-2.926c1.078-1.078,6.929-22.943,6.929-22.943L196.708,224.698z"
			/>
		<path style="fill:#FFFFFF;stroke:#263238;stroke-linecap:round;stroke-linejoin:round;stroke-miterlimit:10;" d="M147.588,271.97
			c0,0,1.078,8.777,3.08,16.322c2.002,7.545,4.927,17.4,5.235,19.094c0.308,1.694-2.464,5.543-2.002,8.007
			c0.462,2.464,0.462,3.234,0.616,4.311c0.154,1.078-4.927,22.943-4.927,23.405c0,0.462,3.85,2.464,7.237,2.464
			c3.387,0,21.865-12.164,23.251-13.704c1.386-1.54,2.156-5.697,3.234-8.931c1.078-3.234,3.85-42.19,3.85-49.12
			c0-6.929-18.939-11.24-18.939-11.24s-10.625,2.31-15.09,5.081C148.666,270.43,147.588,271.97,147.588,271.97z"/>
		<g>
			<path style="fill:#FFFFFF;stroke:#263238;stroke-linecap:round;stroke-linejoin:round;stroke-miterlimit:10;" d="
				M225.348,262.885c0,0-1.848-1.848-3.542-3.234c-1.694-1.386-4.157-3.542-6.929-0.77c-2.266,2.266-1.848,4.466-1.078,7.545
				l-0.77,3.85l1.848,11.548c0,0,6.775-8.469,7.391-9.393c0.616-0.924,4.311-2.31,5.081-4.773
				C228.12,265.195,225.348,262.885,225.348,262.885z"/>
			<path style="fill:#FFFFFF;stroke:#263238;stroke-linecap:round;stroke-linejoin:round;stroke-miterlimit:10;" d="M213.8,266.427
				c0,0,1.848,5.543,6.929,5.235"/>
		</g>
		<path style="fill:#FFFFFF;stroke:#263238;stroke-linecap:round;stroke-linejoin:round;stroke-miterlimit:10;" d="M215.702,319.673
			c0,0-4.701-10.577-4.466-12.927c0.235-2.351,6.111-25.62,4.231-32.201c-1.88-6.581-11.282-19.979-11.282-21.624
			c0-1.645-4.701-12.457-7.051-15.748c-2.35-3.291-8.227-3.996-11.282-1.175c-3.056,2.82-3.996,6.346-4.701,7.286
			c-0.705,0.94-3.056,8.462-7.757,12.928c-4.701,4.466-8.932,6.816-9.402,10.107c-0.47,3.291-0.47,3.291-0.47,3.291
			s-4.936,1.88-5.171,6.581c-0.235,4.701,1.645,5.876,2.115,7.521c0.47,1.645,2.821,20.214,9.402,30.086
			c6.581,9.872,11.752,11.282,11.752,11.282l4.231,13.163L215.702,319.673z"/>
		<path style="fill:#FFFFFF;stroke:#263238;stroke-linecap:round;stroke-linejoin:round;stroke-miterlimit:10;" d="M165.873,270.314
			c0,0,3.996-0.47,5.406,1.88c1.41,2.35,1.645,3.761,1.645,3.761"/>
		<path style="fill:#FFFFFF;stroke:#263238;stroke-linecap:round;stroke-linejoin:round;stroke-miterlimit:10;" d="M173.457,244.408
			c0,0,0.308-9.855,2.618-12.164c2.31-2.31,14.936-1.386,16.322-0.77c1.386,0.616,6.313,2.464,5.851,4.927
			c-0.462,2.464-2.926,3.695-5.081,3.85c-2.156,0.154-7.545-0.462-8.007-0.462c-0.462,0-3.542,1.54-3.542,1.54L173.457,244.408z"/>
		<path style="fill:#FFFFFF;stroke:#263238;stroke-linecap:round;stroke-linejoin:round;stroke-miterlimit:10;" d="M161.447,253.492
			c0,0,0.616-3.233,2.002-4.465c1.386-1.232,11.702-6.467,13.55-7.391c1.848-0.924,4.158-0.77,6.313,0.462
			c2.156,1.232,9.393,6.929,13.088,9.239c3.695,2.31,5.235,4.158,4.465,6.159c-0.77,2.002-2.772,2.772-4.773,2.926
			c-2.002,0.154-5.543-0.616-5.543-0.616s-16.784-8.469-18.17-8.469c-1.386,0-1.694-0.154-3.542,0.616
			C166.99,252.722,161.447,253.492,161.447,253.492z"/>
		<path style="fill:#FFFFFF;stroke:#263238;stroke-linecap:round;stroke-linejoin:round;stroke-miterlimit:10;" d="M153.594,264.579
			c0,0-1.386-4.003,0.154-6.929c1.54-2.926,8.623-4.773,12.78-8.007c4.158-3.234,4.311-2.31,10.625-0.462
			c6.313,1.848,16.168,7.853,16.63,10.009c0.462,2.156-0.308,4.004-3.388,4.619c-3.08,0.616-10.625-2.156-12.01-2.464
			c-1.386-0.308-13.088-2.31-15.398-2.002C160.677,259.651,153.594,264.579,153.594,264.579z"/>
		<path style="fill:#FFFFFF;stroke:#263238;stroke-linecap:round;stroke-linejoin:round;stroke-miterlimit:10;" d="M153.65,274.074
			c0,0,5.171-0.705,7.521-2.585c2.35-1.88,4.466-3.526,4.466-3.526s9.167,2.586,12.458,2.586c3.291,0,4.701-5.171,3.056-7.286
			c-1.645-2.115-7.521-4.231-13.633-5.171s-9.637,0-11.517,2.115c-1.88,2.115-2.35,2.351-3.526,3.291
			c-1.175,0.94-5.171,2.821-5.171,6.111c0,3.291,1.88,5.171,1.88,5.171"/>
		<path style="fill:#FFFFFF;stroke:#263238;stroke-linecap:round;stroke-linejoin:round;stroke-miterlimit:10;" d="M272.349,203.692
			c0,0-111.11-31.888-129.6-42.575c-23.152-13.381-31.471-26.248-33.924-31.001c-0.689,11.066-4.229,29.225-9.944,49.355
			c-6.003,21.146-12.903,39.18-18.251,48.641c2.274-0.99,8.216-3.422,18.204-6.479c13.121-4.017,34.81-3.481,65.068,3.481
			c30.258,6.962,91.309,27.045,91.309,27.045s2.142,0.536,3.213,0c1.071-0.535,5.623-5.088,10.711-21.154
			C274.223,214.939,272.349,203.692,272.349,203.692z"/>
		<path style="fill:#92E3A9;stroke:#263238;stroke-linecap:round;stroke-linejoin:round;stroke-miterlimit:10;" d="M335.773,308.016
			c0,0-26.318,5.761-35.854,6.494c-9.536,0.734-19.073-1.834-22.74,4.768c-3.668,6.602-15.772,36.678-24.208,62.353
			c-8.436,25.674-12.47,117.736-12.47,117.736h169.085c0,0,19.073-46.948,35.211-75.923c16.138-28.976,16.505-50.249,11.737-72.622
			c-4.768-22.374-16.872-33.01-26.775-40.712c-9.903-7.702-19.621-10.925-19.621-10.925L335.773,308.016z"/>
		<path style="fill:#92E3A9;stroke:#263238;stroke-linecap:round;stroke-linejoin:round;stroke-miterlimit:10;" d="M329.79,297.474
			c0,0-25.358,32.196-25.358,33.051s10.257-3.989,10.257-3.989l21.084-18.52L329.79,297.474z"/>
		<path style="fill:#263238;stroke:#263238;stroke-linecap:round;stroke-linejoin:round;stroke-miterlimit:10;" d="M335.378,299.08
			c-1.211-2.664-3.39,1.453-3.39,1.453s-12.834,17.677-14.287,23.246c-1.453,5.569-3.148,10.17-3.148,10.17
			s-13.56,11.381-23.246,34.869c-2.73,6.621-4.671,12.106-6.052,16.57c-1.983,4.862-12.071,30.362-19.036,62.481
			c-7.755,35.759-10.771,53.423-10.771,53.423h28.435c0,0,15.808-95.234,21.891-120.828c3.413-8.344,7.163-17.333,10.231-24.237
			c7.749-17.434,8.475-22.035,8.475-22.035l18.403-11.381C342.885,322.81,336.589,301.744,335.378,299.08z"/>
		<g>
			<path style="fill:#FFFFFF;stroke:#263238;stroke-linecap:round;stroke-linejoin:round;stroke-miterlimit:10;" d="
				M331.854,178.963c-4.262,8.161-10.18,16.549-8.333,21.638c2.348,6.468-1.995,8.832-7.123,13.391
				c-5.129,4.559-8.548,3.419-7.693,8.833c0.855,5.413,6.553,5.983,7.123,7.693c0.57,1.71-1.14,12.252-2.564,24.218
				c-1.425,11.967,0.855,20.799,3.989,23.364s13.676,2.849,13.676,2.849s-3.134,25.358,1.71,25.073
				c4.844-0.285,69.236-28.207,69.236-28.207s-1.71-0.285,1.425-6.268c3.134-5.983,11.397-8.833,25.073-18.235
				c13.676-9.402,25.643-32.481,21.654-47.582c-3.989-15.101-8.832-18.805-9.687-20.514c-0.855-1.71,0.57-8.548-5.983-16.525
				c-6.553-7.978-7.978-3.419-7.978-3.419s-15.956-14.246-33.906-19.375c-17.95-5.129-37.04-3.419-32.196-0.855
				c4.844,2.564,13.106,5.698,13.106,5.698s-23.364-6.268-34.191,0c-10.827,6.268-16.526,13.961-12.822,19.945
				c0,0,1.71,3.134,6.838,0.855c5.129-2.279,12.822-4.844,12.822-4.844S336.24,170.565,331.854,178.963z"/>
			<path style="fill:#FFFFFF;stroke:#263238;stroke-linecap:round;stroke-linejoin:round;stroke-miterlimit:10;" d="
				M316.353,227.483c0,0,4.1,1.892,5.677,2.839c1.577,0.946,5.677,0,6.308-3.154c0.631-3.154-1.577-5.362-1.577-5.362"/>
			<path style="fill:#263238;stroke:#263238;stroke-linecap:round;stroke-linejoin:round;stroke-miterlimit:10;" d="
				M440.339,185.215c-0.855-1.71,0.57-8.548-5.983-16.525c-6.553-7.978-7.978-3.419-7.978-3.419s-15.956-14.246-33.906-19.375
				c-17.95-5.129-37.04-3.419-32.196-0.855c4.844,2.564,13.106,5.698,13.106,5.698s-23.364-6.268-34.191,0
				c-10.827,6.268-16.526,13.961-12.822,19.945c0,0,1.71,3.134,6.838,0.855c5.129-2.279,12.822-4.844,12.822-4.844
				s9.972-1.14,17.665-0.855c7.693,0.285,17.095,3.419,17.095,3.419s-16.81,9.972-15.956,17.38c0.855,7.408,7.123,3.704,7.123,3.704
				s-2.564,14.531-1.14,20.229c1.425,5.699,5.698,10.827,5.698,10.827s-5.129,12.821-1.71,14.531
				c3.419,1.71,8.263-6.838,8.263-6.838s6.553-6.268,14.246-6.553c7.693-0.285,12.537,4.844,11.967,15.386
				c-0.57,10.542-8.263,22.224-7.123,27.922c0.388,1.943,1.345,3.045,2.498,3.66c3.846-4.723,11.684-7.925,23.714-16.196
				c13.676-9.402,25.643-32.481,21.654-47.582C446.038,190.629,441.194,186.925,440.339,185.215z"/>
			<path style="fill:none;stroke:#263238;stroke-linecap:round;stroke-linejoin:round;stroke-miterlimit:10;" d="M381.361,249.322
				c0,0-0.57,7.123,7.123,6.268c7.693-0.855,17.38-4.844,20.799-17.665"/>
			<path style="fill:none;stroke:#263238;stroke-linecap:round;stroke-linejoin:round;stroke-miterlimit:10;" d="M382.785,253.596
				c0,0-5.413,10.257-13.676,14.246"/>
			<path style="fill:#263238;stroke:#263238;stroke-linecap:round;stroke-linejoin:round;stroke-miterlimit:10;" d="M330.93,280.949
				c0,0,5.698,0.285,12.822-1.425c7.123-1.71,14.246-5.414,14.246-5.414s-8.833,9.972-13.391,12.252
				c-4.559,2.279-14.816,11.112-14.816,11.112L330.93,280.949z"/>
			<path style="fill:#263238;stroke:#263238;stroke-linecap:round;stroke-linejoin:round;stroke-miterlimit:10;" d="
				M338.053,208.294c0,0,0-4.844,3.134-4.559c3.134,0.285,7.123,6.838,7.123,6.838S342.042,205.73,338.053,208.294z"/>
			<path style="fill:none;stroke:#263238;stroke-linecap:round;stroke-linejoin:round;stroke-miterlimit:10;" d="M338.053,208.294
				c0,0,1.994,3.419,7.123,3.989"/>
			<path style="fill:#263238;stroke:#263238;stroke-linecap:round;stroke-linejoin:round;stroke-miterlimit:10;" d="
				M332.924,199.746c0,0,3.134-3.989,11.682-4.559c8.548-0.57,13.676,8.263,13.391,9.687c-0.285,1.425-5.983-5.983-9.118-6.268
				c-3.134-0.285-12.252,2.849-14.246,3.419c-1.994,0.57-5.983-5.413-4.274-5.413C332.069,196.612,332.924,199.746,332.924,199.746z
				"/>
			<path style="fill:#263238;stroke:#263238;stroke-linecap:round;stroke-linejoin:round;stroke-miterlimit:10;" d="
				M329.505,248.468c0,7.239-2.36,13.106-5.271,13.106s-5.271-5.868-5.271-13.106c0-7.238,2.36-13.106,5.271-13.106
				S329.505,241.229,329.505,248.468z"/>
		</g>
		<polygon style="fill:#92E3A9;stroke:#263238;stroke-linecap:round;stroke-linejoin:round;stroke-miterlimit:10;" points="
			404.154,273.541 332.069,303.458 341.757,336.793 410.138,299.184 		"/>
		<path style="fill:none;stroke:#263238;stroke-linecap:round;stroke-linejoin:round;stroke-miterlimit:10;" d="M399.683,431.513
			c0,0,11.737,8.803,30.076,5.868"/>
		<path style="fill:none;stroke:#263238;stroke-linecap:round;stroke-linejoin:round;stroke-miterlimit:10;" d="M415.088,416.475
			c0,0,14.304,7.336,24.941,6.602"/>
		<path style="fill:none;stroke:#263238;stroke-linecap:round;stroke-linejoin:round;stroke-miterlimit:10;" d="M361.601,483.554
			c3.452,5.536,6.976,10.364,9.841,12.512"/>
		<path style="fill:none;stroke:#263238;stroke-linecap:round;stroke-linejoin:round;stroke-miterlimit:10;" d="M347.601,457.555
			c0,0,4.493,9.533,10.004,19.256"/>
		<g>
			<g>
				<path style="fill:#92E3A9;stroke:#263238;stroke-linecap:round;stroke-linejoin:round;stroke-miterlimit:10;" d="
					M236.833,347.887c0,0-19.439-31.543-21.64-32.643c-2.201-1.1-15.405,5.502-23.841,11.737
					c-8.436,6.235-14.671,15.772-13.938,20.173c0.733,4.401,22.007,33.377,22.007,33.377l41.079-28.976L236.833,347.887z"/>
				<path style="fill:#92E3A9;stroke:#263238;stroke-linecap:round;stroke-linejoin:round;stroke-miterlimit:10;" d="
					M423.891,330.649c0,0-13.938-7.702-27.142-5.868c-13.204,1.834-46.581,31.91-48.048,35.578
					c-1.467,3.668-6.969,0.367-8.436,2.201c-1.467,1.834-4.035,7.336-4.035,8.436c0,1.1-46.214,26.041-46.214,26.041
					s0-3.668-4.401-5.502c-4.401-1.834-12.47-4.035-12.47-4.035l-6.969-7.336c0,0,1.834-4.768-0.367-8.069
					c-2.201-3.301-24.207-22.374-28.976-24.208c-4.768-1.834-34.477,18.706-38.145,26.775c-3.668,8.069-1.467,17.239,7.702,28.976
					c9.169,11.737,39.612,44.014,45.114,53.55c5.502,9.536,16.872,13.938,23.841,13.204c6.969-0.734,70.055-13.204,102.331-31.176
					c32.277-17.972,37.411-22.74,37.411-22.74s22.007-2.201,33.377-12.837"/>
				<path style="fill:none;stroke:#263238;stroke-linecap:round;stroke-linejoin:round;stroke-miterlimit:10;" d="M253.94,398.104
					c-0.8,2.126-1.615,4.454-2.435,7.001"/>
				<path style="fill:none;stroke:#263238;stroke-linecap:round;stroke-linejoin:round;stroke-miterlimit:10;" d="M265.075,377.597
					c0,0-3.64,3.236-8.368,13.762"/>
				<path style="fill:none;stroke:#263238;stroke-linecap:round;stroke-linejoin:round;stroke-miterlimit:10;" d="M369.683,370.667
					c17.273,4.578,44.619,11.56,56.409,8.397"/>
				<path style="fill:none;stroke:#263238;stroke-linecap:round;stroke-linejoin:round;stroke-miterlimit:10;" d="M340.999,370.628
					c0,0,4.768-5.868,17.239-2.934c1.154,0.272,2.547,0.625,4.137,1.039"/>
				<path style="fill:none;stroke:#263238;stroke-linecap:round;stroke-linejoin:round;stroke-miterlimit:10;" d="M412.009,391.131
					c2.282,0.457,4.542,0.843,6.747,1.137"/>
				<path style="fill:none;stroke:#263238;stroke-linecap:round;stroke-linejoin:round;stroke-miterlimit:10;" d="M369.241,377.23
					c0,0,17.236,7.584,35.336,12.201"/>
				<path style="fill:none;stroke:#263238;stroke-linecap:round;stroke-linejoin:round;stroke-miterlimit:10;" d="M289.216,421.096
					c-1.152,6.172-2.69,12.933-4.702,19.22c-5.869,18.339-1.834,13.938,0,8.436"/>
				<path style="fill:none;stroke:#263238;stroke-linecap:round;stroke-linejoin:round;stroke-miterlimit:10;" d="M292.217,399.603
					c0,0-0.44,5.365-1.578,12.994"/>
			</g>
		</g>
		<path style="fill:none;stroke:#263238;stroke-linecap:round;stroke-linejoin:round;stroke-miterlimit:10;" d="M160.829,314.422
			c0,0,5.951,2.215,9.039-0.625"/>
		<g>
			<path style="fill:#FFFFFF;stroke:#263238;stroke-linecap:round;stroke-linejoin:round;stroke-miterlimit:10;" d="
				M201.943,242.252c0,0,18.016,15.706,20.787,16.168c2.772,0.462,4.311,0.154,4.311,0.154"/>
			<g>
				
					<rect x="210.915" y="235.838" transform="matrix(0.9612 0.2759 -0.2759 0.9612 73.7265 -49.7153)" style="fill:#FFFFFF;stroke:#263238;stroke-linecap:round;stroke-linejoin:round;stroke-miterlimit:10;" width="5.335" height="2.751"/>
				<polygon style="fill:#FFFFFF;stroke:#263238;stroke-linecap:round;stroke-linejoin:round;stroke-miterlimit:10;" points="
					215.768,239.271 213.057,238.466 213.816,235.822 216.527,236.627 				"/>
			</g>
			<g>
				<path style="fill:none;stroke:#263238;stroke-width:4;stroke-linecap:round;stroke-linejoin:round;stroke-miterlimit:10;" d="
					M138.911,209.132c13.679,2.499,35.267,7.942,58.18,14.151"/>
				<path style="fill:none;stroke:#263238;stroke-width:4;stroke-linecap:round;stroke-linejoin:round;stroke-miterlimit:10;" d="
					M82.325,219.51c10.255-6.629,24.229-12.385,41.611-12.052"/>
			</g>
			<path style="fill:#92E3A9;stroke:#263238;stroke-linecap:round;stroke-linejoin:round;stroke-miterlimit:10;" d="
				M272.349,203.692c0,0-37.987-10.893-73.234-22.082c-0.343,7.162-1.554,22.653-5.757,33.061
				c-2.699,6.684-5.515,12.178-7.721,16.103c31.018,8.702,69.575,21.385,69.575,21.385s2.142,0.536,3.213,0
				c1.071-0.535,5.623-5.088,10.711-21.154C274.223,214.939,272.349,203.692,272.349,203.692z"/>
			
				<ellipse transform="matrix(0.2731 -0.962 0.962 0.2731 -104.6161 215.6884)" style="fill:#92E3A9;stroke:#263238;stroke-linecap:round;stroke-linejoin:round;stroke-miterlimit:10;" cx="90.409" cy="177.067" rx="60.382" ry="8.808"/>
			<path style="fill:#263238;stroke:#263238;stroke-linecap:round;stroke-linejoin:round;stroke-miterlimit:10;" d="M93.674,177.994
				c-7.655,26.966-16.056,48.203-18.765,47.434c-2.709-0.769,1.3-23.253,8.954-50.219s16.056-48.203,18.765-47.434
				C105.338,128.544,101.329,151.028,93.674,177.994z"/>
			<path style="fill:none;stroke:#263238;stroke-width:2;stroke-linecap:round;stroke-linejoin:round;stroke-miterlimit:10;" d="
				M256.392,198.791c0.103,3.993,0.006,13.12-2.421,22.247c-2.903,10.916-7.057,19.749-12.367,26.779"/>
			<path style="fill:#92E3A9;stroke:#263238;stroke-linecap:round;stroke-linejoin:round;stroke-miterlimit:10;" d="
				M287.346,214.999c-0.603-1.056-3.922-1.81-3.922-1.81s-0.604-0.905-1.358-2.263c-0.533-0.96-6.187-3.274-9.46-4.55
				c0.245,4.246,0.143,13.22-3.47,24.629c-3.556,11.23-6.849,16.83-8.876,19.369c2.099,0.299,8.464,1.286,9.283,1.286
				c0.905,0,0.905-0.302,1.961-1.056c1.056-0.754,4.073,0.603,5.13-0.151c1.056-0.754,5.129-6.336,7.694-13.427
				C286.893,229.935,287.949,216.055,287.346,214.999z"/>
			<g>
				<path style="fill:#263238;" d="M278.234,241.074c-0.044,0.023-0.202,0.069-0.386,0.007l0.591-1.773
					c-0.671-0.223-1.202,0.171-1.52,0.406c-0.252,0.187-0.418,0.3-0.572,0.301c-0.65-0.037-5.718-1.317-9.539-2.323
					c-0.232,0.606-0.462,1.191-0.69,1.751c3.184,0.842,9.344,2.441,10.214,2.441c0.797,0,1.361-0.417,1.698-0.667
					C278.104,241.162,278.169,241.107,278.234,241.074z"/>
				<path style="fill:#263238;" d="M275.899,245.494l0.265-1.85c-0.754-0.108-1.173,0.061-1.568,0.259
					c-0.214,0.107-0.369,0.184-0.827,0.184c-0.811,0-5.467-0.931-8.928-1.665c-0.279,0.613-0.553,1.192-0.821,1.736
					c2.375,0.507,8.54,1.798,9.749,1.798c0.899,0,1.359-0.229,1.662-0.381C275.633,245.474,275.66,245.461,275.899,245.494z"/>
				<path style="fill:#263238;" d="M273.652,247.354c-0.467,0.233-1.546,0.505-3.052,0.505c-1.09,0-5.352-0.687-7.938-1.127
					c-0.362,0.637-0.708,1.21-1.036,1.718c1.872,0.325,7.485,1.277,8.974,1.277c1.554,0,3.008-0.262,3.888-0.702l0.604-0.302
					l-0.836-1.672L273.652,247.354z"/>
				<path style="fill:#263238;" d="M281.601,231.459l0.325-1.84c-1.905-0.336-8.479-2.546-11.405-3.546
					c-0.148,0.596-0.306,1.201-0.473,1.814C273.076,228.921,279.58,231.102,281.601,231.459z"/>
				<path style="fill:#263238;" d="M281.739,218.942c-1.109-1.386-6.41-2.625-9.394-3.228c-0.062,0.605-0.131,1.223-0.214,1.865
					c3.778,0.78,7.626,1.88,8.148,2.53c1.225,1.532,2.059,2.463,3.294,2.463v-1.869
					C283.218,220.703,282.631,220.057,281.739,218.942z"/>
				<path style="fill:#263238;" d="M285.608,217.613l-2.078-0.909c-0.211-0.43-0.635-1.141-1.408-1.913
					c-0.979-0.979-6.535-2.76-9.47-3.652c-0.019,0.613-0.046,1.249-0.088,1.928c3.808,1.175,7.686,2.546,8.236,3.045
					c0.863,0.863,1.132,1.596,1.132,1.596l0.131,0.394l2.794,1.223L285.608,217.613z"/>
				<path style="fill:#263238;" d="M282.704,226.848l0.851-1.663c-0.005-0.003-0.493-0.276-1.233-1.138
					c-0.844-0.985-6.459-2.508-10.636-3.531c-0.103,0.602-0.216,1.216-0.339,1.843c4.419,1.096,8.957,2.412,9.556,2.904
					C281.882,226.404,282.575,226.784,282.704,226.848z"/>
				<path style="fill:#263238;" d="M279.758,237.054l0.088-1.867c-2.305-0.109-8.366-2.148-11.065-3.092
					c-0.198,0.608-0.395,1.2-0.591,1.774C270.971,234.843,277.197,236.932,279.758,237.054z"/>
			</g>
		</g>
	</g>
</g>
</svg>
